<svg xmlns="http://www.w3.org/2000/svg" viewBox="0 0 40.18 31.25"><defs><style>.cls-1{fill:#ffde00;}</style></defs><title>Asset 3</title><g id="Layer_2" data-name="Layer 2"><g id="Layer_1-2" data-name="Layer 1"><path id="Icon_awesome-home" data-name="Icon awesome-home" class="cls-1" d="M19.56,8.11,6.7,18.7V30.13a1.12,1.12,0,0,0,1.11,1.12l7.82,0a1.12,1.12,0,0,0,1.11-1.12h0V23.43a1.12,1.12,0,0,1,1.12-1.11h4.46a1.12,1.12,0,0,1,1.12,1.11v6.68a1.12,1.12,0,0,0,1.11,1.12h0l7.82,0a1.12,1.12,0,0,0,1.11-1.12V18.69L20.62,8.11A.84.84,0,0,0,19.56,8.11Zm20.31,7.2L34,10.5V.84A.84.84,0,0,0,33.2,0H29.3a.84.84,0,0,0-.84.84V5.9L22.21.76A3.36,3.36,0,0,0,18,.76L.3,15.31a.84.84,0,0,0-.11,1.17h0L2,18.65a.83.83,0,0,0,1.18.11h0L19.56,5.25a.86.86,0,0,1,1.07,0L37,18.76a.83.83,0,0,0,1.18-.11L40,16.49a.84.84,0,0,0-.12-1.18Z"/></g></g></svg>