<svg xmlns="http://www.w3.org/2000/svg" viewBox="0 0 34.86 34.86"><defs><style>.cls-1{fill:none;stroke:#ffde00;stroke-linecap:round;stroke-linejoin:round;stroke-width:2.91px;}</style></defs><title>Asset 5</title><g id="Layer_2" data-name="Layer 2"><g id="Layer_1-2" data-name="Layer 1"><path id="Path_1" data-name="Path 1" class="cls-1" d="M21.79,17.43a4.36,4.36,0,1,1-4.36-4.36A4.36,4.36,0,0,1,21.79,17.43Z"/><path id="Path_2" data-name="Path 2" class="cls-1" d="M28.18,21.79a2.38,2.38,0,0,0,.48,2.64l.09.09a2.91,2.91,0,0,1-4.12,4.11l-.08-.09a2.44,2.44,0,0,0-3.43.07,2.47,2.47,0,0,0-.67,1.65v.24a2.91,2.91,0,1,1-5.81,0h0v-.13a2.38,2.38,0,0,0-1.57-2.19,2.38,2.38,0,0,0-2.64.48l-.09.09a2.91,2.91,0,0,1-4.11-4.12l.09-.08a2.44,2.44,0,0,0-.07-3.43,2.47,2.47,0,0,0-1.65-.67H4.36a2.91,2.91,0,1,1,0-5.81h.13a2.38,2.38,0,0,0,2.19-1.57,2.39,2.39,0,0,0-.48-2.64l-.09-.09a2.91,2.91,0,0,1,4.12-4.11l.08.09A2.43,2.43,0,0,0,13,6.8h.11a2.42,2.42,0,0,0,1.46-2.2V4.36a2.91,2.91,0,1,1,5.81,0v.13A2.41,2.41,0,0,0,24.43,6.2l.09-.08a2.91,2.91,0,0,1,4.11,4.11l-.09.08A2.39,2.39,0,0,0,28.06,13v.11a2.41,2.41,0,0,0,2.2,1.46h.24a2.91,2.91,0,1,1,0,5.81h-.13A2.38,2.38,0,0,0,28.18,21.79Z"/></g></g></svg>